<svg width="84" height="84" viewBox="0 0 84 84" fill="none" xmlns="http://www.w3.org/2000/svg">
<g clip-path="url(#clip0_39_2)">
<path d="M80.9999 42H68.8008C67.2538 42 65.9999 40.7461 65.9999 39.1991V38.5007C65.9999 37.539 66.5198 36.6842 67.3068 36.1315C69.5674 34.5437 70.9134 31.7441 70.3854 28.6714C69.878 25.7181 67.5503 23.2818 64.617 22.6692C59.7686 21.6567 55.5 25.3299 55.5 30C55.5 32.5572 56.7829 34.8106 58.7381 36.1627C59.5114 36.6973 59.9999 37.5501 59.9999 38.4902V39.199C59.9999 40.7459 58.746 41.9998 57.1991 41.9998H44.9999C43.343 42 42 43.343 42 45V57.1992C42 58.7462 43.2539 60.0001 44.8009 60.0001H45.4993C46.461 60.0001 47.3158 59.4802 47.8685 58.6932C49.4563 56.4326 52.2559 55.0866 55.3286 55.6146C58.2819 56.122 60.7182 58.4497 61.3308 61.383C62.3433 66.2314 58.6701 70.4999 54 70.4999C51.4428 70.4999 49.1894 69.2171 47.8373 67.2618C47.3027 66.4886 46.4499 66 45.5098 66H44.801C43.2541 66 42.0002 67.254 42.0002 68.8009V81.0001C42.0002 82.657 43.3432 84.0002 45.0002 84.0002H81.0003C82.6571 84.0002 84.0003 82.6571 84.0003 81.0001V45C84 43.343 82.657 42 80.9999 42Z" fill="#DC12EC"/>
<path d="M28.6716 13.6144C31.7443 13.0866 34.5437 14.4324 36.1315 16.6932C36.6842 17.4802 37.5367 18.0001 38.4984 18.0001H39.1105C40.7451 18.0001 41.9998 16.7462 41.9998 15.1992V3.00005C42 1.34302 40.657 0 39 0H3.00005C1.34302 0 0 1.34302 0 3.00005V39.0001C0 40.657 1.34302 42 3.00005 42H15.1992C16.7462 42 18.0001 43.2539 18.0001 44.8009V45.4995C18.0001 46.4612 17.4802 47.316 16.6932 47.8685C14.4326 49.4563 13.0866 52.2557 13.6144 55.3284C14.1218 58.2817 16.4494 60.7181 19.3828 61.3308C24.2314 62.3433 28.5 58.6702 28.5 54C28.5 51.4428 27.2171 49.1894 25.2619 47.8373C24.4886 47.3027 24 46.4499 24 45.51V44.8012C24 43.2543 25.254 42.0003 26.8009 42.0003H39.0001C40.657 42.0003 42.0002 40.6573 42.0002 39.0003V26.8011C42.0002 25.2541 40.7462 24.0002 39.1993 24.0002H38.4905C37.5505 24.0002 36.6977 24.4888 36.1631 25.262C34.8109 27.2172 32.5575 28.5 30.0001 28.5C25.3299 28.5 21.6567 24.2314 22.6693 19.3828C23.2816 16.4494 25.7181 14.1217 28.6716 13.6144Z" fill="#FEB42E"/>
<path d="M80.9999 0H45C43.343 0 42 1.34302 42 3.00005V15.1992C42 16.7462 40.7461 18.0001 39.1991 18.0001H38.5007C37.539 18.0001 36.6842 17.4802 36.1315 16.6932C34.5437 14.4326 31.7441 13.0866 28.6712 13.6144C25.7179 14.1218 23.2816 16.4496 22.669 19.3828C21.6567 24.2314 25.3298 28.5 30.0001 28.5C32.5574 28.5 34.8108 27.2171 36.1631 25.2619C36.6978 24.4886 37.5506 24 38.4905 24H39.1993C40.7462 24 42.0002 25.254 42.0002 26.8009V39.0001C42.0002 40.657 43.3432 42.0002 45.0002 42.0002H57.1994C58.7463 42.0002 60.0003 40.7462 60.0003 39.1993V38.5009C60.0003 37.5391 59.4804 36.6844 58.6934 36.1316C56.4327 34.5438 55.0868 31.7443 55.6146 28.6714C56.122 25.7181 58.4497 23.2818 61.383 22.6692C66.2315 21.6569 70.5001 25.3299 70.5001 30.0003C70.5001 32.5575 69.2173 34.8109 67.262 36.1633C66.4888 36.698 66.0002 37.5508 66.0002 38.4907V39.1994C66.0002 40.7464 67.2541 42.0003 68.8011 42.0003H81.0003C82.6571 42.0003 84.0003 40.6573 84.0003 39.0003V3.00005C84 1.34302 82.657 0 80.9999 0Z" fill="#FF7CA5"/>
<path d="M55.3284 55.6144C52.2557 55.0866 49.4563 56.4324 47.8685 58.6932C47.3158 59.4802 46.4612 60.0001 45.4993 60.0001H44.8009C43.2539 60.0001 42 58.7462 42 57.1992V45C42 43.3432 40.657 42 39 42H26.8008C25.2538 42 23.9999 43.2539 23.9999 44.8009V45.4993C23.9999 46.461 24.5198 47.3158 25.3068 47.8685C27.5674 49.4563 28.9134 52.2557 28.3856 55.3284C27.8782 58.2817 25.5506 60.7181 22.6172 61.3308C17.7686 62.3436 13.5 58.6702 13.5 54C13.5 51.4428 14.7829 49.1894 16.7381 47.837C17.5114 47.3025 18 46.4497 18 45.5096V44.8009C18 43.2539 16.746 42 15.1991 42H3.00005C1.34302 42 0 43.343 0 45V81.0001C0 82.657 1.34302 84 3.00005 84H39.0001C40.657 84 42.0002 82.657 42.0002 81V68.8008C42.0002 67.2538 43.2541 65.9999 44.801 65.9999H45.5098C46.4497 65.9999 47.3025 66.4885 47.8372 67.2617C49.1894 69.217 51.4428 70.4998 54.0002 70.4998C58.6704 70.4998 62.3437 66.2312 61.331 61.3827C60.7184 58.4494 58.2819 56.1217 55.3284 55.6144Z" fill="#6E26DB"/>
<path d="M25.6691 19.3828C26.2674 16.5168 28.6109 14.2416 31.4726 13.6645C30.5839 13.4861 29.6446 13.4469 28.6714 13.6142C25.7181 14.1219 23.2818 16.4494 22.6692 19.3828C21.6567 24.2314 25.3298 28.5 30 28.5C30.5102 28.5 31.0037 28.4358 31.4847 28.3385C27.5727 27.5345 24.7693 23.6915 25.6691 19.3828Z" fill="#FFC36E"/>
<path d="M41.5007 18H42.1991C43.7461 18 45 16.746 45 15.1991V3.00005C45 1.34302 46.3432 0 47.9999 0H44.9999C43.3431 0 42 1.34302 42 3.00005V15.1992C42 16.3229 41.3342 17.2851 40.379 17.7314C40.7277 17.8925 41.1011 18 41.5007 18Z" fill="#FFC36E"/>
<path d="M45.0001 38.9999V26.8008C45.0001 25.2538 43.7461 23.9999 42.1992 23.9999H41.4904C41.0928 23.9999 40.7179 24.1036 40.3691 24.2632C41.3298 24.7072 42.0004 25.673 42.0004 26.8011V38.9999C42.0004 40.6567 43.3435 42 45.0004 42H48.0004C46.3433 42 45.0001 40.6568 45.0001 38.9999Z" fill="#FFC36E"/>
<path d="M22.3829 61.3308C19.4494 60.7182 17.1219 58.2819 16.6144 55.3284C16.0866 52.2557 17.4324 49.4563 19.6932 47.8685C20.4802 47.3158 21.0001 46.4612 21.0001 45.4993V44.8007C21.0001 43.2538 19.7462 41.9998 18.1993 41.9998H15.1991C16.746 42 17.9999 43.2541 17.9999 44.8009V45.4995C17.9999 46.4612 17.48 47.316 16.693 47.8687C14.4324 49.4565 13.0864 52.2559 13.6142 55.3286C14.1217 58.2819 16.4494 60.7186 19.3826 61.331C20.4546 61.555 21.4941 61.5384 22.4695 61.3441C22.4406 61.3382 22.4121 61.3369 22.3829 61.3308Z" fill="#D2555A"/>
<path d="M3.00005 39V3.00005C3.00005 1.34302 4.34323 0 5.99993 0H3.00005C1.34318 0 0 1.34302 0 3.00005V39.0001C0 40.6568 1.34318 42 3.00005 42H6.00009C4.34323 42 3.00005 40.6568 3.00005 39Z" fill="#D2555A"/>
<path d="M3.00005 81V45C3.00005 43.3432 4.34323 42 6.00009 42H3.00005C1.34318 42 0 43.343 0 45V81.0001C0 82.6568 1.34318 84 3.00005 84H6.00009C4.34323 84 3.00005 82.6568 3.00005 81Z" fill="#23A0EB"/>
<path d="M58.7381 36.1628C59.5114 36.6975 59.9999 37.5501 59.9999 38.4904V39.1991C59.9999 40.7461 58.746 42 57.1991 42H60.1991C61.746 42 63 40.7461 63 39.1991V38.4904C63 37.5503 62.5114 36.6975 61.7382 36.1628C59.7829 34.8108 58.5001 32.5574 58.5001 30.0001C58.5001 26.3624 61.0939 23.3408 64.5305 22.6562C59.7184 21.7056 55.5002 25.3581 55.5002 30.0001C55.5 32.5574 56.7828 34.8106 58.7381 36.1628Z" fill="#23A0EB"/>
<path d="M44.8009 60H45.4993C45.8988 60 46.2723 59.8925 46.621 59.7311C45.6658 59.2848 44.9999 58.3226 44.9999 57.1989V45C44.9999 43.3432 46.343 42 47.9999 42H44.9999C43.3432 42 41.9998 43.343 41.9998 45V57.1992C42 58.746 43.2539 60 44.8009 60Z" fill="#23A0EB"/>
<path d="M45 80.9999V68.8007C45 67.6728 45.6706 66.707 46.6313 66.2629C46.2824 66.1032 45.9073 65.9995 45.5096 65.9995H44.8009C43.2539 65.9995 42 67.2535 42 68.8004V80.9998C42 82.6565 43.3432 83.9998 45 83.9998H48.0001C46.3432 84 45 82.6568 45 80.9999Z" fill="#23A0EB"/>
<path d="M55.5271 55.6646C55.4598 55.6512 55.3962 55.6261 55.3284 55.6144C52.2557 55.0866 49.4563 56.4324 47.8683 58.6932C47.3156 59.4802 46.461 60.0001 45.4993 60.0001H48.4993C49.461 60.0001 50.3158 59.4802 50.8685 58.6932C51.9535 57.1486 53.6104 56.0492 55.5271 55.6646Z" fill="#23A0EB"/>
<path d="M50.837 67.2617C50.3025 66.4885 49.4497 66.0001 48.5096 66.0001H45.5096C46.4497 66.0001 47.3025 66.4886 47.837 67.2617C49.1892 69.2172 51.4426 70.5 54 70.5C54.5199 70.5 55.0249 70.4393 55.5151 70.3385C53.5841 69.9482 51.9195 68.827 50.837 67.2617Z" fill="#23A0EB"/>
</g>
<defs>
<clipPath id="clip0_39_2">
<rect width="84" height="84" fill="white"/>
</clipPath>
</defs>
</svg>
