<svg width="541" height="637" viewBox="0 0 541 637" fill="none" xmlns="http://www.w3.org/2000/svg">
<path fill-rule="evenodd" clip-rule="evenodd" d="M3.73099 390.006L270.5 249.199L538.88 391.506L272.111 532.313L3.73099 390.006Z" fill="#46BEAA"/>
<path fill-rule="evenodd" clip-rule="evenodd" d="M268.88 629.677V538.299C269.96 532.307 273.194 527.814 278.582 524.818L532.418 391.506C537.806 389.511 540.5 391.008 540.5 395.999V493.364C540.5 496.359 537.806 499.355 532.418 502.351L278.582 635.067C272.114 637.465 268.88 635.668 268.88 629.677Z" fill="#ECEFF1"/>
<path fill-rule="evenodd" clip-rule="evenodd" d="M0.5 491.863L272.12 635.663V532.313L3.731 390.005C1.577 391.006 0.5 392.504 0.5 394.499V491.863Z" fill="#D9D9D9"/>
<path d="M302.837 569.761L440.258 497.857" stroke="black" stroke-linecap="round"/>
<path fill-rule="evenodd" clip-rule="evenodd" d="M458.042 498.476V473.929L462.461 476.382V500.93L458.042 498.476Z" fill="#E53935"/>
<path fill-rule="evenodd" clip-rule="evenodd" d="M480.821 461.901L458.042 473.921L462.461 476.374L485.483 464.315L480.821 461.901Z" fill="#F44336"/>
<path fill-rule="evenodd" clip-rule="evenodd" d="M485.483 488.727V464.323L462.461 476.382V500.93L485.483 488.727Z" fill="#EF5350"/>
<path fill-rule="evenodd" clip-rule="evenodd" d="M498.506 477.502V452.954L502.925 455.407V479.955L498.506 477.502Z" fill="#43A047"/>
<path fill-rule="evenodd" clip-rule="evenodd" d="M521.285 440.934L498.506 452.954L502.925 455.407L525.947 443.348L521.285 440.934Z" fill="#4CAF50"/>
<path fill-rule="evenodd" clip-rule="evenodd" d="M525.947 467.752V443.348L502.925 455.407V479.955L525.947 467.752Z" fill="#66BB6A"/>
<path fill-rule="evenodd" clip-rule="evenodd" d="M3.73099 267.173L270.5 126.366L538.88 268.673L272.111 409.472L3.73099 267.173Z" fill="#46BEAA"/>
<path fill-rule="evenodd" clip-rule="evenodd" d="M268.88 506.844V415.466C269.96 409.475 273.194 404.981 278.582 401.986L532.409 268.673C537.797 266.678 540.491 268.176 540.491 273.167V370.531C540.491 373.527 537.797 376.522 532.409 379.518L278.582 512.235C272.114 514.632 268.88 512.835 268.88 506.844Z" fill="#ECEFF1"/>
<path fill-rule="evenodd" clip-rule="evenodd" d="M0.5 369.031L272.12 512.83V409.48L3.731 267.173C1.577 268.173 0.5 269.671 0.5 271.666V369.031Z" fill="#D9D9D9"/>
<path d="M302.837 446.928L440.258 375.025" stroke="black" stroke-linecap="round"/>
<path fill-rule="evenodd" clip-rule="evenodd" d="M458.042 375.644V351.096L462.461 353.549V378.097L458.042 375.644Z" fill="#E53935"/>
<path fill-rule="evenodd" clip-rule="evenodd" d="M480.821 339.077L458.042 351.096L462.461 353.55L485.483 341.49L480.821 339.077Z" fill="#F44336"/>
<path fill-rule="evenodd" clip-rule="evenodd" d="M485.483 365.895V341.49L462.461 353.549V378.097L485.483 365.895Z" fill="#EF5350"/>
<path fill-rule="evenodd" clip-rule="evenodd" d="M498.506 354.677V330.129L502.925 332.583V357.13L498.506 354.677Z" fill="#43A047"/>
<path fill-rule="evenodd" clip-rule="evenodd" d="M521.285 318.102L498.506 330.121L502.925 332.575L525.947 320.515L521.285 318.102Z" fill="#4CAF50"/>
<path fill-rule="evenodd" clip-rule="evenodd" d="M525.947 344.92V320.515L502.925 332.575V357.122L525.947 344.92Z" fill="#66BB6A"/>
<path fill-rule="evenodd" clip-rule="evenodd" d="M3.73099 141.776L270.5 0.969482L538.88 143.276L272.111 284.075L3.73099 141.776Z" fill="#46BEAA"/>
<path fill-rule="evenodd" clip-rule="evenodd" d="M268.88 381.447V290.069C269.96 284.078 273.194 279.584 278.582 276.589L532.418 143.276C537.806 141.281 540.5 142.779 540.5 147.77V245.134C540.5 248.13 537.806 251.125 532.418 254.121L278.582 386.838C272.114 389.235 268.88 387.439 268.88 381.447Z" fill="#ECEFF1"/>
<path fill-rule="evenodd" clip-rule="evenodd" d="M0.5 243.634L272.12 387.433V284.083L3.731 141.776C1.577 142.776 0.5 144.274 0.5 146.269V243.634Z" fill="#D9D9D9"/>
<path fill-rule="evenodd" clip-rule="evenodd" d="M302.837 321.531L440.258 249.628Z" fill="black"/>
<path d="M302.837 321.531L440.258 249.628" stroke="black" stroke-linecap="round"/>
<path fill-rule="evenodd" clip-rule="evenodd" d="M458.042 250.247V225.699L462.461 228.153V252.7L458.042 250.247Z" fill="#E53935"/>
<path fill-rule="evenodd" clip-rule="evenodd" d="M480.821 213.68L458.042 225.699L462.461 228.153L485.483 216.093L480.821 213.68Z" fill="#F44336"/>
<path fill-rule="evenodd" clip-rule="evenodd" d="M485.483 240.498V216.093L462.461 228.153V252.7L485.483 240.498Z" fill="#EF5350"/>
<path fill-rule="evenodd" clip-rule="evenodd" d="M498.506 229.272V204.725L502.925 207.178V231.725L498.506 229.272Z" fill="#43A047"/>
<path fill-rule="evenodd" clip-rule="evenodd" d="M521.285 192.705L498.506 204.725L502.925 207.178L525.947 195.118L521.285 192.705Z" fill="#4CAF50"/>
<path fill-rule="evenodd" clip-rule="evenodd" d="M525.947 219.523V195.118L502.925 207.178V231.725L525.947 219.523Z" fill="#66BB6A"/>
</svg>
